<?xml version="1.0" encoding="UTF-8"?>
<!DOCTYPE svg  PUBLIC '-//W3C//DTD SVG 1.1//EN'  'http://www.w3.org/Graphics/SVG/1.1/DTD/svg11.dtd'>
<svg enable-background="new 0 0 42 42" version="1.1" viewBox="0 0 42 42" xml:space="preserve" xmlns="http://www.w3.org/2000/svg">
		<path d="m21 1c-11.046 0-20 8.955-20 20s8.954 20 20 20c11.045 0 20-8.955 20-20s-8.954-20-20-20zm0.217 30.745c-5.937 0-10.746-4.81-10.746-10.745 0-5.936 4.809-10.745 10.746-10.745 2.9 0 5.326 1.069 7.185 2.8l-3.028 3.028v-6e-3c-1.128-1.075-2.56-1.625-4.156-1.625-3.545 0-6.427 2.996-6.427 6.541s2.881 6.547 6.427 6.547c3.215 0 5.406-1.84 5.855-4.365h-5.855v-4.191h10.105c0.134 0.718 0.208 1.472 0.208 2.257-1e-3 6.139-4.111 10.504-10.314 10.504z"/>
</svg>
