<?xml version="1.0" encoding="UTF-8"?>
<!DOCTYPE svg  PUBLIC '-//W3C//DTD SVG 1.1//EN'  'http://www.w3.org/Graphics/SVG/1.1/DTD/svg11.dtd'>
<svg enable-background="new 0 0 42 42" version="1.1" viewBox="0 0 42 42" xml:space="preserve" xmlns="http://www.w3.org/2000/svg">
			<path d="m27.053 21.174c0 3.23-2.704 5.851-6.039 5.851-3.333 0-6.037-2.622-6.037-5.851 0-0.58 0.088-1.139 0.251-1.667l-1.514-0.329v8.501c0 0.427 0.182 0.607 0.607 0.607h13.359c0.426 0 0.608-0.181 0.608-0.607v-8.501l-1.485 0.329c0.161 0.53 0.25 1.087 0.25 1.667z"/>
			<ellipse cx="21.014" cy="20.963" rx="3.902" ry="3.781"/>
			<path d="m21 1c-11.045 0-20 8.954-20 20s8.955 20 20 20 20-8.955 20-20-8.955-20-20-20zm9.717 27.286c0 1.371-1.058 2.43-2.429 2.43h-14.574c-1.371 0-2.429-1.059-2.429-2.43v-14.574c0-1.371 1.058-2.429 2.429-2.429h14.574c1.371 0 2.429 1.058 2.429 2.429v14.574z"/>
			<path d="m27.68 13.712h-2.43c-0.336 0-0.607 0.271-0.607 0.607v2.429c0 0.336 0.271 0.607 0.607 0.607h2.429c0.336 0 0.607-0.271 0.607-0.607v-2.428c0-0.335-0.271-0.608-0.606-0.608z"/>
</svg>
