<?xml version="1.0" encoding="UTF-8"?>
<!DOCTYPE svg  PUBLIC '-//W3C//DTD SVG 1.1//EN'  'http://www.w3.org/Graphics/SVG/1.1/DTD/svg11.dtd'>
<svg enable-background="new 0 0 42 42" version="1.1" viewBox="0 0 42 42" xml:space="preserve" xmlns="http://www.w3.org/2000/svg">
		<path d="m21 1c-11.045 0-20 8.954-20 20 0 11.045 8.955 20 20 20s20-8.955 20-20c0-11.046-8.955-20-20-20zm-5.195 27.846h-4.08v-12.275h4.08v12.275zm-2.04-13.951h-0.026c-1.37 0-2.255-0.944-2.255-2.122 0-1.203 0.913-2.12 2.308-2.12s2.255 0.917 2.282 2.12c-1e-3 1.18-0.888 2.122-2.309 2.122zm16.752 13.951h-4.08v-6.566c0-1.65-0.591-2.776-2.067-2.776-1.127 0-1.797 0.759-2.093 1.493-0.108 0.263-0.135 0.629-0.135 0.995v6.854h-4.079s0.054-11.122 0-12.274h4.08v1.738c0.541-0.836 1.512-2.027 3.677-2.027 2.685 0 4.697 1.754 4.697 5.525v7.038z"/>
</svg>
