<?xml version="1.0" encoding="UTF-8"?>
<!DOCTYPE svg  PUBLIC '-//W3C//DTD SVG 1.1//EN'  'http://www.w3.org/Graphics/SVG/1.1/DTD/svg11.dtd'>
<svg enable-background="new 0 0 42 42" version="1.1" viewBox="0 0 42 42" xml:space="preserve" xmlns="http://www.w3.org/2000/svg">
		<path d="m21 1c-11.045 0-20 8.955-20 20s8.955 20 20 20 20-8.955 20-20-8.955-20-20-20zm10.551 13.571c-0.093 0.155-0.568 0.699-1.075 1.195-0.86 0.854-0.907 0.946-0.907 1.662 0 1.101-0.521 3.4-1.043 4.656-0.969 2.359-3.041 4.798-5.114 6.025-2.917 1.723-6.802 2.158-10.073 1.147-1.09-0.342-2.964-1.211-2.964-1.365 0-0.048 0.568-0.109 1.26-0.125 1.443-0.03 2.887-0.433 4.115-1.149l0.829-0.497-0.953-0.325c-1.351-0.467-2.563-1.538-2.872-2.546-0.092-0.326-0.061-0.343 0.798-0.343l0.89-0.015-0.752-0.358c-0.892-0.45-1.706-1.209-2.104-1.987-0.291-0.558-0.66-1.971-0.552-2.08 0.031-0.046 0.354 0.048 0.721 0.172 1.059 0.389 1.197 0.295 0.583-0.357-1.151-1.181-1.505-2.934-0.952-4.595l0.261-0.745 1.014 1.009c2.074 2.034 4.515 3.245 7.309 3.601l0.768 0.093-0.046-0.761c-0.137-1.971 1.075-3.772 2.996-4.471 0.705-0.249 1.904-0.279 2.687-0.063 0.308 0.093 0.891 0.404 1.306 0.682l0.752 0.513 0.829-0.265c0.462-0.139 1.075-0.373 1.351-0.528 0.263-0.14 0.492-0.217 0.492-0.171 0 0.264-0.568 1.165-1.045 1.661-0.646 0.699-0.461 0.761 0.845 0.295 0.783-0.26 0.798-0.26 0.646 0.035z"/>
</svg>
